HIERARCHY
ROOT Hips
{
	OFFSET 0.00000 0.00000 0.00000
	CHANNELS 6 Xposition Yposition Zposition Zrotation Yrotation Xrotation 
	JOINT LHipJoint
	{
		OFFSET 0 0 0
		CHANNELS 3 Zrotation Yrotation Xrotation
		JOINT LeftUpLeg
		{
			OFFSET 1.39187 -1.60231 0.69152
			CHANNELS 3 Zrotation Yrotation Xrotation
			JOINT LeftLeg
			{
				OFFSET 2.43314 -6.68499 0.00000
				CHANNELS 3 Zrotation Yrotation Xrotation
				JOINT LeftFoot
				{
					OFFSET 2.32059 -6.37578 0.00000
					CHANNELS 3 Zrotation Yrotation Xrotation
					JOINT LeftToeBase
					{
						OFFSET 0.23021 -0.63250 1.71305
						CHANNELS 3 Zrotation Yrotation Xrotation
						End Site
						{
							OFFSET 0.00000 -0.00000 0.91647
						}
					}
				}
			}
		}
	}
	JOINT RHipJoint
	{
		OFFSET 0 0 0
		CHANNELS 3 Zrotation Yrotation Xrotation
		JOINT RightUpLeg
		{
			OFFSET -1.19407 -1.60231 0.69152
			CHANNELS 3 Zrotation Yrotation Xrotation
			JOINT RightLeg
			{
				OFFSET -2.44411 -6.71513 0.00000
				CHANNELS 3 Zrotation Yrotation Xrotation
				JOINT RightFoot
				{
					OFFSET -2.31924 -6.37207 0.00000
					CHANNELS 3 Zrotation Yrotation Xrotation
					JOINT RightToeBase
					{
						OFFSET -0.19473 -0.53502 1.87724
						CHANNELS 3 Zrotation Yrotation Xrotation
						End Site
						{
							OFFSET -0.00000 -0.00000 0.98293
						}
					}
				}
			}
		}
	}
	JOINT LowerBack
	{
		OFFSET 0 0 0
		CHANNELS 3 Zrotation Yrotation Xrotation
		JOINT Spine
		{
			OFFSET -0.01120 1.87307 0.09613
			CHANNELS 3 Zrotation Yrotation Xrotation
			JOINT Spine1
			{
				OFFSET 0.01099 1.87818 0.04834
				CHANNELS 3 Zrotation Yrotation Xrotation
				JOINT Neck
				{
					OFFSET 0 0 0
					CHANNELS 3 Zrotation Yrotation Xrotation
					JOINT Neck1
					{
						OFFSET 0.01702 1.40324 -0.12579
						CHANNELS 3 Zrotation Yrotation Xrotation
						JOINT Head
						{
							OFFSET -0.04239 1.38587 -0.01614
							CHANNELS 3 Zrotation Yrotation Xrotation
							End Site
							{
								OFFSET -0.02510 1.47031 -0.00154
							}
						}
					}
				}
				JOINT LeftShoulder
				{
					OFFSET 0 0 0
					CHANNELS 3 Zrotation Yrotation Xrotation
					JOINT LeftArm
					{
						OFFSET 2.95699 0.62343 0.11653
						CHANNELS 3 Zrotation Yrotation Xrotation
						JOINT LeftForeArm
						{
							OFFSET 4.68382 -0.00000 -0.00000
							CHANNELS 3 Zrotation Yrotation Xrotation
							JOINT LeftHand
							{
								OFFSET 2.98124 -0.00000 -0.00000
								CHANNELS 3 Zrotation Yrotation Xrotation
								JOINT LeftFingerBase
								{
									OFFSET 0 0 0
									CHANNELS 3 Zrotation Yrotation Xrotation
									JOINT LeftHandIndex1
									{
										OFFSET 0.70759 -0.00000 0.00000
										CHANNELS 3 Zrotation Yrotation Xrotation
										End Site
										{
											OFFSET 0.57048 -0.00000 0.00000
										}
									}
								}
								JOINT LThumb
								{
									OFFSET 0 0 0
									CHANNELS 3 Zrotation Yrotation Xrotation
									End Site
									{
										OFFSET 0.57919 -0.00000 0.57919
									}
								}
							}
						}
					}
				}
				JOINT RightShoulder
				{
					OFFSET 0 0 0
					CHANNELS 3 Zrotation Yrotation Xrotation
					JOINT RightArm
					{
						OFFSET -2.99027 0.88714 -0.02793
						CHANNELS 3 Zrotation Yrotation Xrotation
						JOINT RightForeArm
						{
							OFFSET -4.75876 -0.00000 -0.00000
							CHANNELS 3 Zrotation Yrotation Xrotation
							JOINT RightHand
							{
								OFFSET -2.93293 -0.00000 -0.00000
								CHANNELS 3 Zrotation Yrotation Xrotation
								JOINT RightFingerBase
								{
									OFFSET 0 0 0
									CHANNELS 3 Zrotation Yrotation Xrotation
									JOINT RightHandIndex1
									{
										OFFSET -0.83175 -0.00000 0.00000
										CHANNELS 3 Zrotation Yrotation Xrotation
										End Site
										{
											OFFSET -0.67058 -0.00000 0.00000
										}
									}
								}
								JOINT RThumb
								{
									OFFSET 0 0 0
									CHANNELS 3 Zrotation Yrotation Xrotation
									End Site
									{
										OFFSET -0.68082 -0.00000 0.68082
									}
								}
							}
						}
					}
				}
			}
		}
	}
}
MOTION
Frames: 16
Frame Time: 0.0571429
0.00 0.00 0.00 0 0 0 0 0 0 -21 0 0 0 0 0 0 0 0 0 0 0 0 0 0 21 0 0 0 0 0 0 0 0 0 0 0 0 0 0 0 0 0 0 0 0 0 0 -16 0 0 21 0 0 11 0 0 0 -8 0 0 0 0 0 0 0 0 0 0 0 0 0 0 0 0 0 0 0 0 8 0 0 0 0 0 0 0 0 0 0 0 0 0 0 0 0 0
0.00 0.00 0.00 172.2510 -84.5506 -150.7140 0.0000 0.0000 0.0000 -15.7126 -16.7297 -35.3062 4.1896 12.4085 37.1927 1.4786 -0.0739 -22.9854 0.0455 1.3768 3.7861 0.0000 0.0000 0.0000 11.1844 20.0284 -35.6651 -3.8908 -12.0137 35.7805 0.0493 -10.8789 -14.7266 -0.8379 5.8392 -16.3184 -4.4116 -0.4426 -12.4017 -0.6516 -0.1212 -2.8642 1.7846 -0.1515 3.9471 -8.0955 -3.6567 -0.2075 12.4177 -4.8991 -1.3198 5.0223 -2.4931 0.1671 -0.0000 0.0000 0.0000 -27.7475 -42.5539 -16.9848 122.6823 -55.5518 -87.8810 -0.0000 -0.0000 13.7994 23.9382 24.1556 10.2964 -7.1250 0.0000 -0.0000 -5.9123 56.0192 -1.6021 -0.0000 0.0000 0.0000 53.7646 19.6196 -4.9353 -147.7109 42.7764 -107.0633 0.0000 0.0000 3.2018 -35.3324 12.7900 -8.9188 7.1250 -0.0000 -0.0000 -5.4692 -14.4797 -3.9463
0.00 0.00 0.00 172.8790 -84.7009 -148.0370 0.0000 0.0000 0.0000 -11.4000 -20.4478 -49.3478 8.0426 16.1505 52.7159 1.7410 0.2774 -25.0726 0.1374 -2.3894 -6.5832 0.0000 0.0000 0.0000 8.5554 20.1109 -50.1545 -7.4454 -15.6958 50.5395 -0.4370 -9.3519 -19.2020 -0.9773 6.2932 -17.6375 -4.6493 -0.1863 -9.5122 -0.8099 0.1035 -2.9743 1.7853 0.0047 2.2284 -8.0569 -3.8036 -1.9235 13.8175 -4.7402 -5.0478 5.4678 -2.4736 -0.6044 0.0000 -0.0000 0.0000 -29.4600 -43.2565 -14.8359 119.9884 -56.3130 -85.6493 -0.0000 -0.0000 14.0741 24.3021 25.7239 11.0890 -7.1250 0.0000 -0.0000 -6.1487 57.7361 -1.9219 0.0000 -0.0000 0.0000 53.5917 19.5247 -1.0825 -145.2628 44.6236 -105.3715 0.0000 0.0000 3.7028 -34.7589 13.2392 -9.0303 7.1250 -0.0000 -0.0000 -5.0225 -14.0437 -3.6680
0.00 0.00 0.00 167.2760 -84.2002 -142.6360 0.0000 0.0000 0.0000 -8.7912 -22.7757 -59.7668 13.0507 18.8004 69.2829 2.0793 1.7314 -27.9293 0.4687 -4.3911 -12.1797 0.0000 0.0000 0.0000 6.3581 19.4569 -60.8895 -12.0350 -18.4054 66.0996 -1.0207 -8.7258 -24.1246 -1.0566 6.5358 -18.3473 -5.2076 0.0873 -7.2968 -1.0635 0.4231 -2.5501 1.8601 0.1870 1.4186 -8.3993 -3.5804 -4.2879 14.2241 -4.2069 -6.7431 5.6466 -2.1921 -0.7425 0.0000 -0.0000 0.0000 -26.7845 -41.9612 -10.5345 106.0561 -59.0031 -73.8584 -0.0000 -0.0000 9.0828 24.1544 28.9754 12.2571 -7.1250 0.0000 -0.0000 -7.9009 61.0606 -3.1023 0.0000 -0.0000 0.0000 47.7803 19.9328 3.1498 -137.1118 49.6909 -99.3846 0.0000 0.0000 0.9571 -33.5285 11.4245 -7.4771 7.1250 -0.0000 -0.0000 -4.4194 -16.3798 -3.0028
0.00 0.00 0.00 155.1080 -84.3564 -131.0140 0.0000 0.0000 0.0000 -8.3623 -25.7768 -63.1297 14.7858 19.3353 74.5906 2.2925 6.2400 -31.3533 0.3728 -3.9217 -10.8564 0.0000 0.0000 0.0000 3.9938 19.0853 -66.4922 -14.6290 -19.2938 74.1167 -1.1565 -9.8883 -26.1139 -1.2323 7.0398 -19.8334 -5.3493 -0.0359 -7.3483 -1.3998 0.2541 -2.7984 1.5777 0.1048 1.2020 -8.3234 -3.6555 -4.3925 13.5862 -4.2193 -8.3855 5.4653 -2.2344 -1.2244 0.0000 -0.0000 0.0000 -14.4779 -38.1671 -4.5418 84.9377 -59.9029 -55.6173 -0.0000 0.0000 -2.7083 19.2205 29.5637 9.7602 -7.1250 0.0000 -0.0000 -13.8071 60.4437 -5.2585 0.0000 -0.0000 0.0000 34.8221 18.6896 5.1073 -126.4287 54.3381 -90.9483 0.0000 -0.0000 -3.0249 -32.6530 12.5074 -7.9011 7.1250 -0.0000 -0.0000 -3.6929 -15.2405 -2.5978
0.00 0.00 0.00 139.7240 -86.5130 -117.5510 0.0000 0.0000 0.0000 -6.7970 -29.2492 -60.2352 12.6065 18.6354 67.8987 1.4493 7.4102 -26.4928 0.3931 -4.0260 -11.1498 0.0000 0.0000 0.0000 5.3606 17.7161 -64.0125 -12.6701 -18.6598 68.0978 -0.5139 -10.1334 -20.7838 -1.6095 8.0003 -22.7150 -4.4893 -0.7484 -6.4190 -0.6122 -0.8183 -3.0816 1.8328 -0.4081 0.4676 -8.5646 -3.6399 -2.8090 12.6185 -4.2219 -9.8295 5.2689 -2.2748 -1.9339 -0.0000 -0.0000 0.0000 4.7596 -36.5916 0.6833 62.3621 -56.9072 -36.3134 -0.0000 0.0000 -12.5988 5.9805 26.9368 2.7171 -7.1250 0.0000 -0.0000 -25.6434 55.1393 -6.7084 -0.0000 -0.0000 0.0000 13.5652 22.9678 1.1757 -108.2537 58.7028 -75.7393 0.0000 -0.0000 -4.3714 -34.0846 13.1103 -8.7259 7.1250 -0.0000 -0.0000 -4.5868 -14.3094 -3.3217
0.00 0.00 0.00 149.7720 -86.2528 -128.4850 0.0000 0.0000 0.0000 -10.0342 -22.4715 -53.8989 7.7232 15.9119 51.5595 0.7917 -0.2257 -16.7433 0.1016 -2.0558 -5.6600 0.0000 0.0000 0.0000 8.8338 15.2493 -56.5134 -7.4786 -15.7220 50.6620 -0.2054 -3.8562 -10.8696 -1.3130 7.2579 -20.4818 -5.2984 -0.8444 -7.1316 -0.4420 -0.8698 -3.2031 2.4504 -0.4343 0.7500 -8.0449 -3.1532 -1.6149 12.3586 -3.7447 -7.4567 5.0780 -2.0108 -1.5072 0.0000 0.0000 0.0000 12.1588 -40.6665 -1.5848 51.0382 -53.4057 -27.0055 -0.0000 0.0000 -12.8827 6.5996 25.5508 2.8567 -7.1250 0.0000 -0.0000 -24.1485 54.0045 -5.5956 0.0000 0.0000 0.0000 3.5164 28.6064 -2.1039 -93.8383 59.9443 -63.3234 0.0000 -0.0000 -5.8256 -32.7830 12.4548 -7.9077 7.1250 -0.0000 -0.0000 -3.7876 -15.2823 -2.6612
0.00 0.00 0.00 158.9590 -85.6264 -137.0750 0.0000 0.0000 0.0000 -10.2505 -18.3871 -49.3786 4.0975 12.2890 36.7622 0.0726 -2.7371 -4.8684 0.4138 -4.1292 -11.4406 0.0000 0.0000 0.0000 9.1951 16.0661 -50.2339 -3.4891 -11.4475 33.8045 -0.0566 -1.0040 4.2542 -1.0481 6.5104 -18.2728 -5.5407 -0.7611 -7.9098 -0.6535 -0.7137 -3.4232 2.3735 -0.3639 0.9381 -7.4881 -2.5694 -1.6781 11.9578 -3.0642 -5.7777 4.8367 -1.6338 -1.0967 -0.0000 0.0000 0.0000 16.8925 -43.6756 -8.1482 47.2132 -51.8078 -23.9659 -0.0000 0.0000 -13.9381 10.0928 25.8259 4.4340 -7.1250 0.0000 -0.0000 -20.9182 54.9101 -5.2621 -0.0000 0.0000 0.0000 -3.7427 31.6754 -6.1415 -83.8476 59.8565 -54.6744 0.0000 -0.0000 -5.7115 -33.8661 12.1240 -8.0232 7.1250 -0.0000 -0.0000 -4.5650 -15.5059 -3.1887
0.00 0.00 0.00 151.9920 -85.2548 -127.3470 0.0000 0.0000 0.0000 -9.7140 -19.0197 -52.2939 6.8141 15.1734 48.1678 0.0871 -0.7368 -5.3619 0.6166 -5.0256 -13.9816 0.0000 0.0000 0.0000 9.6358 13.6500 -54.9219 -5.2939 -13.7073 42.0774 -0.0005 -2.4879 1.7757 -2.1231 9.1179 -26.1648 -6.0258 -1.2165 -8.2065 -0.3375 -1.4321 -5.3568 2.9266 -0.6664 -0.8418 -6.5547 -1.8815 -3.5063 9.9797 -2.3343 -1.7755 4.4380 -1.1342 0.2746 0.0000 -0.0000 0.0000 29.1440 -40.4740 -21.3651 42.5010 -49.4838 -20.3207 -0.0000 0.0000 -14.8852 12.3346 25.1062 5.3007 -7.1250 0.0000 -0.0000 -18.2857 54.6579 -4.4499 0.0000 -0.0000 0.0000 -23.1671 27.7653 -14.9172 -65.9442 57.6963 -39.3282 0.0000 -0.0000 -7.2594 -34.9952 9.4991 -6.5905 7.1250 -0.0000 -0.0000 -5.6666 -18.4679 -3.5974
0.00 0.00 0.00 154.8570 -83.8820 -132.2100 0.0000 0.0000 0.0000 -14.1306 -15.6743 -50.5390 11.1601 18.0125 63.3003 0.0631 2.1873 -6.0763 0.4621 -4.3606 -12.0935 0.0000 0.0000 0.0000 11.4673 11.4410 -55.7473 -10.0740 -17.4513 59.7354 0.1624 -7.7133 0.3316 -1.6205 8.0264 -22.7942 -6.1947 -0.7215 -6.6391 -0.2397 -0.8633 -5.3949 3.1846 -0.3388 -1.7994 -6.2170 -1.7849 -2.6441 8.9707 -2.2348 -1.7725 4.0164 -1.0994 0.0916 -0.0000 -0.0000 0.0000 34.4675 -34.1171 -25.6966 39.0123 -47.4737 -17.7078 -0.0000 0.0000 -11.5662 20.4829 24.0745 8.6640 -7.1250 0.0000 -0.0000 -9.5125 55.2258 -2.4042 -0.0000 -0.0000 0.0000 -31.1428 21.6352 -18.7467 -54.2016 54.5556 -29.5645 0.0000 -0.0000 -3.7066 -34.3074 5.8779 -3.9972 7.1250 -0.0000 -0.0000 -5.5799 -22.8846 -2.9845
0.00 0.00 0.00 155.0820 -82.2604 -131.5760 0.0000 0.0000 0.0000 -20.3678 -11.1627 -38.8748 9.3142 17.0057 57.1706 0.0606 -1.0299 5.1499 0.1935 -2.8326 -7.8131 0.0000 0.0000 0.0000 11.8794 9.3910 -47.1794 -11.2238 -18.0429 63.5064 -0.8798 -5.7268 16.7270 -0.0459 1.3830 -3.8033 -5.2525 -0.6307 -12.0681 0.2368 -0.7742 -7.9483 3.1234 -0.3773 -1.5324 -5.2241 -0.5980 1.9717 6.2570 -0.9307 0.7248 2.9103 -0.5023 -0.0565 -0.0000 -0.0000 0.0000 48.3712 -26.4965 -46.5857 16.1209 -25.6843 -3.6982 -0.0000 -0.0000 15.6021 -26.9920 8.6104 -4.3608 -7.1250 0.0000 -0.0000 -41.8495 34.9185 13.6645 -0.0000 -0.0000 0.0000 -50.4018 25.0152 -54.9929 -16.5166 26.2161 -3.8714 0.0000 0.0000 25.5111 -19.5830 11.4383 -4.0355 7.1250 -0.0000 -0.0000 5.2937 -17.8902 3.4262
0.00 0.00 0.00 155.2490 -82.0345 -130.9290 0.0000 0.0000 0.0000 -20.7686 -11.3966 -36.3582 7.3888 15.6507 50.3299 0.1684 0.1803 7.6881 0.1269 -2.2964 -6.3255 0.0000 0.0000 0.0000 12.3071 8.9546 -44.9804 -9.6815 -17.2268 58.4186 -1.2928 -6.8577 20.3241 -0.0262 1.0446 -2.8715 -5.1462 -0.4715 -13.6385 0.1936 -0.5595 -8.3846 3.0346 -0.3039 -1.1781 -4.4757 -0.8829 2.5734 5.2307 -1.3157 0.7646 2.4316 -0.6971 -0.1345 0.0000 0.0000 0.0000 60.2616 -28.0750 -97.2226 10.2837 -17.1822 -1.5577 -0.0000 -0.0000 29.0826 -4.3675 17.7001 -1.3302 -7.1250 0.0000 -0.0000 -29.7745 45.3588 -0.2900 0.0000 0.0000 0.0000 -55.0255 25.4795 -69.5403 -13.2622 21.6701 -2.5493 0.0000 0.0000 31.8836 -14.8541 15.6448 -4.0910 7.1250 -0.0000 -0.0000 8.6032 -13.9514 6.3486
0.00 0.00 0.00 157.9430 -80.6172 -133.1410 0.0000 0.0000 0.0000 -22.4897 -10.4975 -30.3795 3.7459 11.8144 35.0785 0.1686 3.4507 7.3294 0.2747 -3.3715 -9.3149 0.0000 0.0000 0.0000 13.1379 8.2167 -36.6153 -5.0953 -13.4903 41.2327 -0.7096 -2.9381 15.1877 -1.7488 8.3219 -23.6962 -5.1697 0.4332 -14.1799 -0.0124 0.6517 -8.4593 2.9850 0.2916 -1.0790 -4.2609 -1.2251 1.3205 4.0524 -1.7042 0.5935 1.9961 -0.8682 0.0353 -0.0000 0.0000 0.0000 61.4551 -19.0102 -99.9150 10.2094 -17.0665 -1.5358 -0.0000 -0.0000 28.0671 12.2849 24.0372 5.0689 -7.1250 0.0000 -0.0000 -17.7610 53.6281 -3.8631 -0.0000 0.0000 0.0000 -59.9775 20.6498 -81.7684 -13.9807 22.7070 -2.8206 0.0000 0.0000 26.9405 -20.1381 14.8340 -5.3634 7.1250 -0.0000 -0.0000 5.0148 -14.2693 3.6383
0.00 0.00 0.00 162.4780 -79.3419 -133.0590 0.0000 0.0000 0.0000 -21.2841 -12.8116 -37.2885 4.2772 12.5204 37.5987 0.0196 -3.7142 6.1031 0.0155 -0.8043 -2.2106 0.0000 0.0000 0.0000 11.0471 12.6183 -38.1865 -4.0610 -12.2412 36.5905 -0.0073 -3.4364 2.7457 -2.6391 10.0866 -29.2577 -3.8034 1.8495 -11.9843 -0.6670 2.3228 -8.5281 1.6671 1.1083 -2.3683 -5.5317 -1.4287 -0.9840 3.7819 -1.8296 -5.1762 2.1655 -0.8929 -1.3708 0.0000 -0.0000 0.0000 38.1125 1.8284 -55.0491 31.7374 -42.3368 -12.5636 -0.0000 0.0000 -5.8025 36.0262 26.5726 18.0206 -7.1250 0.0000 -0.0000 7.4287 61.5627 3.0041 0.0000 -0.0000 0.0000 -41.7812 2.3930 -56.4544 -51.3057 53.5087 -27.2204 0.0000 0.0000 7.9023 -37.6465 13.6127 -10.2902 7.1250 -0.0000 -0.0000 -6.8883 -13.0646 -5.1914
0.00 0.00 0.00 164.5760 -79.0020 -134.6280 0.0000 0.0000 0.0000 -21.5514 -11.8122 -37.5391 5.2851 13.6978 42.0403 0.8235 -2.8559 -16.4191 0.8847 -5.9959 -16.7724 0.0000 0.0000 0.0000 12.6783 10.3238 -39.3662 -4.9315 -13.3062 40.5257 -0.3077 -6.0114 -14.3963 -2.3811 9.6184 -27.7496 -3.5275 2.0200 -10.5072 -0.6023 2.4669 -8.7977 1.5355 1.1935 -3.4508 -6.2609 -1.0473 0.8604 4.2494 -1.4048 -7.7290 2.5207 -0.6798 -2.5596 0.0000 -0.0000 0.0000 32.8499 5.0276 -51.0875 36.1543 -45.6190 -15.6327 -0.0000 0.0000 -7.2793 37.9355 27.6769 19.9030 -7.1250 0.0000 -0.0000 9.8021 63.3454 4.3845 0.0000 -0.0000 0.0000 -37.0641 2.4121 -55.6346 -63.0142 57.0611 -36.8602 0.0000 0.0000 6.6981 -39.9581 13.7643 -11.2740 7.1250 -0.0000 -0.0000 -8.3788 -12.3982 -6.4555
0.00 0.00 0.00 168.6640 -78.8839 -137.5680 0.0000 0.0000 0.0000 -21.0937 -11.5993 -40.1137 5.9299 14.3600 44.6996 2.7765 8.5418 -35.3501 2.3413 -9.5435 -27.5107 0.0000 0.0000 0.0000 13.1455 9.4202 -44.9801 -6.4943 -14.8908 46.9348 -1.8359 -11.1572 -31.6745 -3.0019 10.6981 -31.2684 -2.0794 2.3215 -7.7513 -0.5768 2.6873 -9.5362 0.6480 1.2499 -5.6911 -5.9326 -0.7765 1.9194 3.4000 -1.1652 -9.5125 2.2176 -0.5443 -3.3796 0.0000 -0.0000 0.0000 22.9069 8.5173 -46.9627 44.9839 -50.7606 -22.2263 -0.0000 0.0000 -9.6464 37.7486 27.5791 19.7204 -7.1250 0.0000 -0.0000 9.5587 63.1811 4.2378 0.0000 -0.0000 0.0000 -27.3993 2.2278 -50.9729 -87.5120 59.9766 -57.8455 0.0000 0.0000 3.5165 -43.7610 13.9474 -12.9977 7.1250 -0.0000 -0.0000 -10.7927 -11.2589 -8.6363
